<svg width="499" height="461" viewBox="0 0 499 461" fill="none" xmlns="http://www.w3.org/2000/svg">
<path d="M81.6646 310.448C52.3005 361.692 26.1784 414.207 11.1875 460.041H120.133C135.717 408.783 183.515 371.468 240.062 371.468C296.61 371.468 344.408 408.783 359.992 460.041H468.936C455.888 420.149 434.409 375.196 409.699 330.425C359.469 338.836 291.835 340.515 217.877 333.49C168.065 328.758 121.57 320.666 81.6646 310.448Z" fill="url(#paint0_linear_859_21475)"/>
<path d="M120.133 460.041C135.717 408.783 183.515 371.469 240.062 371.469C296.61 371.469 344.408 408.783 359.992 460.041H317.473C303.826 430.96 274.28 410.822 240.031 410.822C205.782 410.822 176.236 430.96 162.588 460.041H120.133Z" fill="url(#paint1_linear_859_21475)"/>
<ellipse cx="247.274" cy="69.3419" rx="247.274" ry="69.3419" transform="matrix(0.998052 0.0623943 -0.0367239 0.999325 5.09375 139.592)" fill="url(#paint2_linear_859_21475)"/>
<path d="M140.936 50.6329C148.014 23.4154 172.006 3.73936 198.93 11.8613C219.374 18.0282 239.532 26.2417 260.567 27.4216C280.158 28.5205 300.599 22.7522 320.972 18.7378C348.515 13.3108 370.269 35.0728 374.462 62.8301L397.363 214.437C398.372 221.119 394.35 227.448 387.742 228.861C367.857 233.113 322.077 240.268 251.773 236.175C172.644 231.567 128.397 218.403 110.171 211.578C104.204 209.343 101.313 202.995 102.917 196.828L140.936 50.6329Z" fill="url(#paint3_linear_859_21475)"/>
<path opacity="0.2" d="M173.666 76.4758C176.335 63.7848 188.264 55.2405 201.139 56.797C215.019 58.475 224.827 71.2073 222.907 85.0562L211.839 164.915C209.67 180.565 194.917 191.268 179.367 188.472C163.933 185.697 153.843 170.718 157.071 155.372L173.666 76.4758Z" fill="white"/>
<defs>
<linearGradient id="paint0_linear_859_21475" x1="240.062" y1="310.448" x2="240.062" y2="460.041" gradientUnits="userSpaceOnUse">
<stop stop-color="#5F5F5F"/>
<stop offset="1" stop-color="#282828"/>
</linearGradient>
<linearGradient id="paint1_linear_859_21475" x1="240.062" y1="371.469" x2="240.062" y2="460.041" gradientUnits="userSpaceOnUse">
<stop stop-color="#282828"/>
<stop offset="1" stop-color="#5F5F5F"/>
</linearGradient>
<linearGradient id="paint2_linear_859_21475" x1="247.274" y1="0" x2="247.274" y2="138.684" gradientUnits="userSpaceOnUse">
<stop stop-color="#282828" stop-opacity="0.6"/>
<stop offset="1" stop-color="#282828"/>
</linearGradient>
<linearGradient id="paint3_linear_859_21475" x1="262.613" y1="9.344" x2="248.445" y2="235.975" gradientUnits="userSpaceOnUse">
<stop stop-color="#282828"/>
<stop offset="1" stop-color="#282828" stop-opacity="0.6"/>
</linearGradient>
</defs>
</svg>
